Rokkitt-Light.ufo
<glyph name="fj" format="1">
  <advance width="1064"/>
  <unicode hex="0000"/>
  <outline>
    <contour>
      <point x="445" y="804" type="line"/>
      <point x="445" y="750" type="line"/>
      <point x="852" y="750" type="line"/>
      <point x="852" y="-30" type="line" smooth="yes"/>
      <point x="852" y="-141"/>
      <point x="852" y="-200"/>
      <point x="721" y="-200" type="curve" smooth="yes"/>
      <point x="646" y="-200" type="line"/>
      <point x="646" y="-258" type="line"/>
      <point x="723" y="-258" type="line" smooth="yes"/>
      <point x="928" y="-258"/>
      <point x="928" y="-135"/>
      <point x="928" y="-19" type="curve" smooth="yes"/>
      <point x="928" y="804" type="line"/>
    </contour>
    <contour>
      <point x="881" y="1152" type="line" smooth="yes"/>
      <point x="838" y="1152"/>
      <point x="816" y="1122"/>
      <point x="816" y="1091" type="curve" smooth="yes"/>
      <point x="816" y="1062"/>
      <point x="838" y="1030"/>
      <point x="881" y="1030" type="curve" smooth="yes"/>
      <point x="884" y="1030" type="line" smooth="yes"/>
      <point x="928" y="1030"/>
      <point x="950" y="1062"/>
      <point x="950" y="1091" type="curve" smooth="yes"/>
      <point x="950" y="1122"/>
      <point x="928" y="1152"/>
      <point x="884" y="1152" type="curve" smooth="yes"/>
    </contour>
    <component base="f"/>
  </outline>
</glyph>
<glyph name="exclam" format="1">
  <advance width="240"/>
  <unicode hex="0021"/>
  <outline>
    <contour>
      <point x="106" y="322" type="line"/>
      <point x="135" y="322" type="line"/>
      <point x="162" y="756" type="line"/>
      <point x="162" y="1155" type="line"/>
      <point x="79" y="1155" type="line"/>
      <point x="79" y="756" type="line"/>
    </contour>
    <contour>
      <point x="72" y="0" type="line"/>
      <point x="168" y="0" type="line"/>
      <point x="168" y="99" type="line"/>
      <point x="72" y="99" type="line"/>
    </contour>
  </outline>
</glyph>
<glyph name="quotedbl" format="1">
  <advance width="557"/>
  <unicode hex="0022"/>
  <outline>
    <contour>
      <point x="166" y="854" type="line"/>
      <point x="198" y="854" type="line"/>
      <point x="231" y="1234" type="line"/>
      <point x="139" y="1234" type="line"/>
    </contour>
    <contour>
      <point x="359" y="854" type="line"/>
      <point x="391" y="854" type="line"/>
      <point x="424" y="1234" type="line"/>
      <point x="333" y="1234" type="line"/>
    </contour>
  </outline>
</glyph>
<glyph name="period" format="1">
  <advance width="441"/>
  <unicode hex="002E"/>
  <outline>
    <contour>
      <point x="165" y="120" type="line"/>
      <point x="165" y="0" type="line"/>
      <point x="281" y="0" type="line"/>
      <point x="281" y="120" type="line"/>
    </contour>
  </outline>
</glyph>
<glyph name="three" format="1">
  <advance width="976"/>
  <unicode hex="0033"/>
  <outline>
    <contour>
      <point x="473" y="-20" type="curve" smooth="yes"/>
      <point x="714" y="-20"/>
      <point x="865" y="114"/>
      <point x="865" y="326" type="curve" smooth="yes"/>
      <point x="865" y="478"/>
      <point x="759" y="588"/>
      <point x="591" y="609" type="curve"/>
      <point x="746" y="637"/>
      <point x="844" y="737"/>
      <point x="844" y="868" type="curve" smooth="yes"/>
      <point x="844" y="1055"/>
      <point x="697" y="1172"/>
      <point x="464" y="1172" type="curve" smooth="yes"/>
      <point x="292" y="1172"/>
      <point x="146" y="1086"/>
      <point x="86" y="947" type="curve"/>
      <point x="152" y="918" type="line"/>
      <point x="211" y="1033"/>
      <point x="331" y="1105"/>
      <point x="462" y="1105" type="curve" smooth="yes"/>
      <point x="648" y="1105"/>
      <point x="765" y="1013"/>
      <point x="765" y="867" type="curve" smooth="yes"/>
      <point x="765" y="734"/>
      <point x="626" y="650"/>
      <point x="404" y="650" type="curve"/>
      <point x="404" y="576" type="line"/>
      <point x="639" y="576"/>
      <point x="786" y="479"/>
      <point x="786" y="324" type="curve" smooth="yes"/>
      <point x="786" y="153"/>
      <point x="668" y="46"/>
      <point x="481" y="46" type="curve" smooth="yes"/>
      <point x="339" y="46"/>
      <point x="211" y="120"/>
      <point x="151" y="239" type="curve"/>
      <point x="92" y="201" type="line"/>
      <point x="157" y="66"/>
      <point x="304" y="-20"/>
    </contour>
  </outline>
</glyph>
<glyph name="A" format="1">
  <advance width="1354"/>
  <unicode hex="0041"/>
  <outline>
    <contour>
      <point x="73" y="0" type="line"/>
      <point x="454" y="0" type="line"/>
      <point x="454" y="58" type="line"/>
      <point x="306" y="58" type="line"/>
      <point x="455" y="470" type="line"/>
      <point x="899" y="470" type="line"/>
      <point x="1049" y="58" type="line"/>
      <point x="900" y="58" type="line"/>
      <point x="900" y="0" type="line"/>
      <point x="1281" y="0" type="line"/>
      <point x="1281" y="58" type="line"/>
      <point x="1129" y="58" type="line"/>
      <point x="741" y="1093" type="line"/>
      <point x="888" y="1093" type="line"/>
      <point x="888" y="1152" type="line"/>
      <point x="467" y="1152" type="line"/>
      <point x="467" y="1093" type="line"/>
      <point x="614" y="1093" type="line"/>
      <point x="225" y="58" type="line"/>
      <point x="73" y="58" type="line"/>
    </contour>
    <contour>
      <point x="475" y="527" type="line"/>
      <point x="674" y="1088" type="line"/>
      <point x="680" y="1088" type="line"/>
      <point x="888" y="527" type="line"/>
    </contour>
    <contour>
      <point x="1099" y="0" type="move" name="ogonek"/>
    </contour>
    <contour>
      <point x="681" y="1152" type="move" name="top"/>
    </contour>
  </outline>
</glyph>
<glyph name="E" format="1">
  <advance width="1211"/>
  <unicode hex="0045"/>
  <outline>
    <contour>
      <point x="768" y="396" type="line"/>
      <point x="830" y="396" type="line"/>
      <point x="830" y="770" type="line"/>
      <point x="768" y="770" type="line"/>
      <point x="768" y="623" type="line"/>
      <point x="321" y="623" type="line"/>
      <point x="321" y="557" type="line"/>
      <point x="768" y="557" type="line"/>
    </contour>
    <contour>
      <point x="315" y="0" type="line"/>
      <point x="1075" y="0" type="line"/>
      <point x="1075" y="352" type="line"/>
      <point x="1003" y="352" type="line"/>
      <point x="1003" y="58" type="line"/>
      <point x="315" y="58" type="line"/>
    </contour>
    <contour>
      <point x="984" y="802" type="line"/>
      <point x="1055" y="802" type="line"/>
      <point x="1055" y="1152" type="line"/>
      <point x="315" y="1152" type="line"/>
      <point x="315" y="1093" type="line"/>
      <point x="984" y="1093" type="line"/>
    </contour>
    <component base="uc_main_stem"/>
    <contour>
      <point x="686" y="0" type="move" name="ogonek"/>
    </contour>
    <contour>
      <point x="652" y="1152" type="move" name="top"/>
    </contour>
  </outline>
</glyph>
<glyph name="J" format="1">
  <advance width="611"/>
  <unicode hex="004A"/>
  <outline>
    <contour>
      <point x="107" y="-67" type="line"/>
      <point x="224" y="-67" type="line" smooth="yes"/>
      <point x="342" y="-67"/>
      <point x="402" y="-23"/>
      <point x="402" y="156" type="curve" smooth="yes"/>
      <point x="402" y="1096" type="line"/>
      <point x="532" y="1096" type="line"/>
      <point x="532" y="1152" type="line"/>
      <point x="195" y="1152" type="line"/>
      <point x="195" y="1096" type="line"/>
      <point x="325" y="1096" type="line"/>
      <point x="325" y="166" type="line" smooth="yes"/>
      <point x="325" y="45"/>
      <point x="310" y="0"/>
      <point x="229" y="0" type="curve" smooth="yes"/>
      <point x="107" y="0" type="line"/>
    </contour>
    <contour>
      <point x="369" y="1152" type="move" name="top"/>
    </contour>
  </outline>
</glyph>
<glyph name="P" format="1">
  <advance width="1180"/>
  <unicode hex="0050"/>
  <outline>
    <contour>
      <point x="447" y="483" type="line"/>
      <point x="705" y="483" type="line" smooth="yes"/>
      <point x="922" y="483"/>
      <point x="1058" y="620"/>
      <point x="1058" y="839" type="curve" smooth="yes"/>
      <point x="1058" y="1031"/>
      <point x="927" y="1152"/>
      <point x="718" y="1152" type="curve" smooth="yes"/>
      <point x="317" y="1152" type="line"/>
      <point x="317" y="1093" type="line"/>
      <point x="718" y="1093" type="line" smooth="yes"/>
      <point x="881" y="1093"/>
      <point x="984" y="994"/>
      <point x="984" y="836" type="curve" smooth="yes"/>
      <point x="984" y="657"/>
      <point x="876" y="544"/>
      <point x="705" y="544" type="curve" smooth="yes"/>
      <point x="447" y="544" type="line"/>
    </contour>
    <component base="uc_main_stem"/>
    <contour>
      <point x="640" y="1152" type="move" name="top"/>
    </contour>
  </outline>
</glyph>
<glyph name="Q" format="1">
  <advance width="1429"/>
  <unicode hex="0051"/>
  <outline>
    <contour>
      <point x="1024" y="-206" type="curve" smooth="yes"/>
      <point x="1070" y="-206"/>
      <point x="1117" y="-198"/>
      <point x="1172" y="-179" type="curve"/>
      <point x="1151" y="-124" type="line"/>
      <point x="1107" y="-139"/>
      <point x="1069" y="-146"/>
      <point x="1032" y="-146" type="curve" smooth="yes"/>
      <point x="932" y="-146"/>
      <point x="847" y="-68"/>
      <point x="752" y="10" type="curve"/>
      <point x="656" y="10" type="line"/>
      <point x="806" y="-108"/>
      <point x="887" y="-206"/>
    </contour>
    <component base="O"/>
  </outline>
</glyph>
<glyph name="R" format="1">
  <advance width="1259"/>
  <unicode hex="0052"/>
  <outline>
    <contour>
      <point x="961" y="0" type="line"/>
      <point x="1178" y="0" type="line"/>
      <point x="1178" y="58" type="line"/>
      <point x="1015" y="58" type="line"/>
      <point x="721" y="539" type="line"/>
      <point x="945" y="539"/>
      <point x="1059" y="696"/>
      <point x="1059" y="848" type="curve" smooth="yes"/>
      <point x="1059" y="1000"/>
      <point x="945" y="1152"/>
      <point x="721" y="1152" type="curve" smooth="yes"/>
      <point x="317" y="1152" type="line"/>
      <point x="317" y="1093" type="line"/>
      <point x="721" y="1093" type="line" smooth="yes"/>
      <point x="898" y="1093"/>
      <point x="985" y="971"/>
      <point x="985" y="845" type="curve" smooth="yes"/>
      <point x="985" y="723"/>
      <point x="896" y="600"/>
      <point x="721" y="600" type="curve" smooth="yes"/>
      <point x="427" y="600" type="line"/>
      <point x="427" y="539" type="line"/>
      <point x="641" y="539" type="line"/>
    </contour>
    <component base="uc_main_stem"/>
    <contour>
      <point x="703" y="0" type="move" name="bot"/>
    </contour>
    <contour>
      <point x="630" y="1152" type="move" name="top"/>
    </contour>
  </outline>
</glyph>
<glyph name="bracketleft" format="1">
  <advance width="390"/>
  <unicode hex="005B"/>
  <outline>
    <contour>
      <point x="154" y="-145" type="line"/>
      <point x="381" y="-145" type="line"/>
      <point x="381" y="-86" type="line"/>
      <point x="231" y="-86" type="line"/>
      <point x="231" y="1152" type="line"/>
      <point x="381" y="1152" type="line"/>
      <point x="381" y="1210" type="line"/>
      <point x="154" y="1210" type="line"/>
    </contour>
  </outline>
</glyph>
<glyph name="bracketright" format="1">
  <advance width="388"/>
  <unicode hex="005D"/>
  <outline>
    <contour>
      <point x="2" y="-145" type="line"/>
      <point x="229" y="-145" type="line"/>
      <point x="229" y="1210" type="line"/>
      <point x="2" y="1210" type="line"/>
      <point x="2" y="1152" type="line"/>
      <point x="152" y="1152" type="line"/>
      <point x="152" y="-86" type="line"/>
      <point x="2" y="-86" type="line"/>
    </contour>
  </outline>
</glyph>
<glyph name="a" format="1">
  <advance width="941"/>
  <unicode hex="0061"/>
  <outline>
    <contour>
      <point x="385" y="-23" type="curve" smooth="yes"/>
      <point x="475" y="-23"/>
      <point x="580" y="10"/>
      <point x="687" y="83" type="curve"/>
      <point x="703" y="0" type="line"/>
      <point x="890" y="0" type="line"/>
      <point x="890" y="57" type="line"/>
      <point x="764" y="57" type="line"/>
      <point x="764" y="554" type="line" smooth="yes"/>
      <point x="764" y="683"/>
      <point x="682" y="826"/>
      <point x="458" y="826" type="curve" smooth="yes"/>
      <point x="376" y="826"/>
      <point x="287" y="802"/>
      <point x="166" y="757" type="curve"/>
      <point x="182" y="696" type="line"/>
      <point x="266" y="731"/>
      <point x="370" y="762"/>
      <point x="463" y="762" type="curve" smooth="yes"/>
      <point x="587" y="762"/>
      <point x="687" y="713"/>
      <point x="687" y="552" type="curve" smooth="yes"/>
      <point x="687" y="424" type="line"/>
      <point x="595" y="441"/>
      <point x="497" y="457"/>
      <point x="408" y="457" type="curve" smooth="yes"/>
      <point x="247" y="457"/>
      <point x="117" y="398"/>
      <point x="117" y="214" type="curve" smooth="yes"/>
      <point x="117" y="72"/>
      <point x="229" y="-23"/>
    </contour>
    <contour>
      <point x="392" y="42" type="curve" smooth="yes"/>
      <point x="265" y="42"/>
      <point x="195" y="120"/>
      <point x="195" y="212" type="curve" smooth="yes"/>
      <point x="195" y="353"/>
      <point x="295" y="397"/>
      <point x="422" y="397" type="curve" smooth="yes"/>
      <point x="505" y="397"/>
      <point x="600" y="382"/>
      <point x="687" y="369" type="curve"/>
      <point x="687" y="143" type="line"/>
      <point x="569" y="71"/>
      <point x="470" y="42"/>
    </contour>
    <contour>
      <point x="805" y="0" type="move" name="ogonek"/>
    </contour>
    <contour>
      <point x="465" y="805" type="move" name="top"/>
    </contour>
  </outline>
</glyph>
<glyph name="d" format="1">
  <advance width="1050.015"/>
  <unicode hex="0064"/>
  <outline>
    <component base="lc_bowl_left" xOffset="-71"/>
    <component base="lc_ascender_stem_2" xOffset="543"/>
    <contour>
      <point x="811" y="958" type="move" name="mid"/>
    </contour>
  </outline>
</glyph>
<glyph name="k" format="1">
  <advance width="959"/>
  <unicode hex="006B"/>
  <outline>
    <contour>
      <point x="528" y="805" type="line"/>
      <point x="528" y="747" type="line"/>
      <point x="667" y="747" type="line"/>
      <point x="279" y="421" type="line"/>
      <point x="704" y="0" type="line"/>
      <point x="917" y="0" type="line"/>
      <point x="917" y="58" type="line"/>
      <point x="742" y="58" type="line"/>
      <point x="368" y="421" type="line"/>
      <point x="765" y="747" type="line"/>
      <point x="907" y="747" type="line"/>
      <point x="907" y="805" type="line"/>
    </contour>
    <component base="lc_ascender_stem" xOffset="-21"/>
    <contour>
      <point x="498" y="0" type="move" name="bot"/>
    </contour>
  </outline>
</glyph>
<glyph name="s" format="1">
  <advance width="889"/>
  <unicode hex="0073"/>
  <outline>
    <contour>
      <point x="466" y="-14" type="curve" smooth="yes"/>
      <point x="624" y="-14"/>
      <point x="784" y="56"/>
      <point x="784" y="211" type="curve" smooth="yes"/>
      <point x="784" y="387"/>
      <point x="668" y="405"/>
      <point x="495" y="442" type="curve" smooth="yes"/>
      <point x="379" y="467" type="line" smooth="yes"/>
      <point x="286" y="487"/>
      <point x="216" y="507"/>
      <point x="216" y="597" type="curve" smooth="yes"/>
      <point x="216" y="707"/>
      <point x="313" y="762"/>
      <point x="428" y="762" type="curve" smooth="yes"/>
      <point x="516" y="762"/>
      <point x="628" y="723"/>
      <point x="673" y="667" type="curve"/>
      <point x="673" y="549" type="line"/>
      <point x="740" y="549" type="line"/>
      <point x="740" y="804" type="line"/>
      <point x="673" y="804" type="line"/>
      <point x="673" y="744" type="line"/>
      <point x="614" y="798"/>
      <point x="515" y="826"/>
      <point x="422" y="826" type="curve" smooth="yes"/>
      <point x="278" y="826"/>
      <point x="137" y="757"/>
      <point x="137" y="600" type="curve" smooth="yes"/>
      <point x="137" y="477"/>
      <point x="227" y="432"/>
      <point x="356" y="406" type="curve" smooth="yes"/>
      <point x="483" y="380" type="line" smooth="yes"/>
      <point x="648" y="346"/>
      <point x="711" y="327"/>
      <point x="711" y="212" type="curve" smooth="yes"/>
      <point x="711" y="104"/>
      <point x="595" y="50"/>
      <point x="470" y="50" type="curve" smooth="yes"/>
      <point x="358" y="50"/>
      <point x="234" y="87"/>
      <point x="199" y="161" type="curve"/>
      <point x="199" y="257" type="line"/>
      <point x="133" y="257" type="line"/>
      <point x="133" y="-1" type="line"/>
      <point x="199" y="-1" type="line"/>
      <point x="199" y="74" type="line"/>
      <point x="254" y="18"/>
      <point x="359" y="-14"/>
    </contour>
    <contour>
      <point x="466" y="0" type="move" name="bot"/>
    </contour>
    <contour>
      <point x="435" y="805" type="move" name="top"/>
    </contour>
  </outline>
</glyph>
<glyph name="x" format="1">
  <advance width="1060"/>
  <unicode hex="0078"/>
  <outline>
    <contour>
      <point x="46" y="0" type="line"/>
      <point x="414" y="0" type="line"/>
      <point x="414" y="58" type="line"/>
      <point x="281" y="58" type="line"/>
      <point x="534" y="363" type="line"/>
      <point x="792" y="58" type="line"/>
      <point x="634" y="58" type="line"/>
      <point x="634" y="0" type="line"/>
      <point x="1014" y="0" type="line"/>
      <point x="1014" y="58" type="line"/>
      <point x="869" y="58" type="line"/>
      <point x="571" y="409" type="line"/>
      <point x="850" y="746" type="line"/>
      <point x="1003" y="746" type="line"/>
      <point x="1003" y="804" type="line"/>
      <point x="622" y="804" type="line"/>
      <point x="622" y="746" type="line"/>
      <point x="764" y="746" type="line"/>
      <point x="527" y="462" type="line"/>
      <point x="287" y="746" type="line"/>
      <point x="438" y="746" type="line"/>
      <point x="438" y="804" type="line"/>
      <point x="69" y="804" type="line"/>
      <point x="69" y="746" type="line"/>
      <point x="212" y="746" type="line"/>
      <point x="488" y="416" type="line"/>
      <point x="190" y="58" type="line"/>
      <point x="46" y="58" type="line"/>
    </contour>
  </outline>
</glyph>
<glyph name="cent" format="1">
  <advance width="951"/>
  <unicode hex="00A2"/>
  <outline>
    <contour>
      <point x="260" y="-244" type="line"/>
      <point x="323" y="-244" type="line"/>
      <point x="690" y="1034" type="line"/>
      <point x="632" y="1034" type="line"/>
    </contour>
    <component base="c"/>
  </outline>
</glyph>
<glyph name="yen" format="1">
  <advance width="1258"/>
  <unicode hex="00A5"/>
  <outline>
    <contour>
      <point x="249" y="260" type="line"/>
      <point x="998" y="260" type="line"/>
      <point x="998" y="316" type="line"/>
      <point x="249" y="316" type="line"/>
    </contour>
    <contour>
      <point x="249" y="410" type="line"/>
      <point x="998" y="410" type="line"/>
      <point x="998" y="466" type="line"/>
      <point x="249" y="466" type="line"/>
    </contour>
    <component base="Y"/>
  </outline>
</glyph>
<glyph name="logicalnot" format="1">
  <advance width="909"/>
  <unicode hex="00AC"/>
  <outline>
    <contour>
      <point x="749" y="304" type="line"/>
      <point x="826" y="304" type="line"/>
      <point x="826" y="697" type="line"/>
      <point x="88" y="697" type="line"/>
      <point x="88" y="617" type="line"/>
      <point x="749" y="617" type="line"/>
    </contour>
  </outline>
</glyph>
<glyph name="registered" format="1">
  <advance width="1516"/>
  <unicode hex="00AE"/>
  <outline>
    <contour>
      <point x="441" y="221" type="line"/>
      <point x="692" y="221" type="line"/>
      <point x="692" y="279" type="line"/>
      <point x="596" y="279" type="line"/>
      <point x="596" y="553" type="line"/>
      <point x="754" y="553" type="line"/>
      <point x="951" y="221" type="line"/>
      <point x="1102" y="221" type="line"/>
      <point x="1102" y="279" type="line"/>
      <point x="1000" y="279" type="line"/>
      <point x="832" y="553" type="line"/>
      <point x="963" y="561"/>
      <point x="1028" y="658"/>
      <point x="1028" y="753" type="curve" smooth="yes"/>
      <point x="1028" y="851"/>
      <point x="956" y="951"/>
      <point x="812" y="951" type="curve" smooth="yes"/>
      <point x="434" y="951" type="line"/>
      <point x="434" y="894" type="line"/>
      <point x="527" y="894" type="line"/>
      <point x="527" y="279" type="line"/>
      <point x="441" y="279" type="line"/>
    </contour>
    <contour>
      <point x="596" y="611" type="line"/>
      <point x="596" y="894" type="line"/>
      <point x="812" y="894" type="line" smooth="yes"/>
      <point x="911" y="894"/>
      <point x="963" y="822"/>
      <point x="963" y="750" type="curve" smooth="yes"/>
      <point x="963" y="681"/>
      <point x="910" y="611"/>
      <point x="812" y="611" type="curve" smooth="yes"/>
    </contour>
    <contour>
      <point x="758" y="-3" type="curve" smooth="yes"/>
      <point x="374" y="-3"/>
      <point x="188" y="281"/>
      <point x="188" y="580" type="curve" smooth="yes"/>
      <point x="188" y="867"/>
      <point x="379" y="1162"/>
      <point x="758" y="1162" type="curve" smooth="yes"/>
      <point x="1133" y="1162"/>
      <point x="1329" y="867"/>
      <point x="1329" y="580" type="curve" smooth="yes"/>
      <point x="1329" y="291"/>
      <point x="1135" y="-3"/>
    </contour>
    <contour>
      <point x="758" y="-60" type="curve" smooth="yes"/>
      <point x="1187" y="-60"/>
      <point x="1400" y="259"/>
      <point x="1400" y="579" type="curve" smooth="yes"/>
      <point x="1400" y="900"/>
      <point x="1185" y="1221"/>
      <point x="758" y="1221" type="curve" smooth="yes"/>
      <point x="333" y="1221"/>
      <point x="116" y="900"/>
      <point x="116" y="579" type="curve" smooth="yes"/>
      <point x="116" y="259"/>
      <point x="331" y="-60"/>
    </contour>
  </outline>
</glyph>
<glyph name="degree" format="1">
  <advance width="845"/>
  <unicode hex="00B0"/>
  <outline>
    <contour>
      <point x="423" y="777" type="curve" smooth="yes"/>
      <point x="317" y="777"/>
      <point x="238" y="852"/>
      <point x="238" y="953" type="curve" smooth="yes"/>
      <point x="238" y="1054"/>
      <point x="317" y="1129"/>
      <point x="423" y="1129" type="curve" smooth="yes"/>
      <point x="529" y="1129"/>
      <point x="608" y="1054"/>
      <point x="608" y="953" type="curve" smooth="yes"/>
      <point x="608" y="852"/>
      <point x="529" y="777"/>
    </contour>
    <contour>
      <point x="423" y="720" type="curve" smooth="yes"/>
      <point x="567" y="720"/>
      <point x="675" y="820"/>
      <point x="675" y="953" type="curve" smooth="yes"/>
      <point x="675" y="1086"/>
      <point x="567" y="1186"/>
      <point x="423" y="1186" type="curve" smooth="yes"/>
      <point x="279" y="1186"/>
      <point x="171" y="1086"/>
      <point x="171" y="953" type="curve" smooth="yes"/>
      <point x="171" y="820"/>
      <point x="279" y="720"/>
    </contour>
  </outline>
</glyph>
<glyph name="plusminus" format="1">
  <advance width="880"/>
  <unicode hex="00B1"/>
  <outline>
    <contour>
      <point x="410" y="138" type="line"/>
      <point x="472" y="138" type="line"/>
      <point x="472" y="534" type="line"/>
      <point x="828" y="534" type="line"/>
      <point x="828" y="598" type="line"/>
      <point x="472" y="598" type="line"/>
      <point x="472" y="982" type="line"/>
      <point x="410" y="982" type="line"/>
      <point x="410" y="598" type="line"/>
      <point x="54" y="598" type="line"/>
      <point x="54" y="534" type="line"/>
      <point x="410" y="534" type="line"/>
    </contour>
    <contour>
      <point x="52" y="0" type="line"/>
      <point x="826" y="0" type="line"/>
      <point x="826" y="62" type="line"/>
      <point x="52" y="62" type="line"/>
    </contour>
  </outline>
</glyph>
<glyph name="threesuperior" format="1">
  <advance width="811"/>
  <unicode hex="00B3"/>
  <outline>
    <contour>
      <point x="293" y="1335"/>
      <point x="188" y="1277"/>
      <point x="141" y="1184" type="curve"/>
      <point x="196" y="1155" type="line"/>
      <point x="233" y="1229"/>
      <point x="317" y="1275"/>
      <point x="415" y="1275" type="curve" smooth="yes"/>
      <point x="538" y="1275"/>
      <point x="615" y="1207"/>
      <point x="615" y="1100" type="curve" smooth="yes"/>
      <point x="615" y="1002"/>
      <point x="527" y="940"/>
      <point x="386" y="940" type="curve" smooth="yes"/>
      <point x="316" y="940" type="line"/>
      <point x="316" y="880" type="line"/>
      <point x="396" y="880" type="line" smooth="yes"/>
      <point x="535" y="880"/>
      <point x="622" y="811"/>
      <point x="622" y="700" type="curve" smooth="yes"/>
      <point x="622" y="579"/>
      <point x="538" y="503"/>
      <point x="404" y="503" type="curve" smooth="yes"/>
      <point x="311" y="503"/>
      <point x="225" y="559"/>
      <point x="181" y="649" type="curve"/>
      <point x="124" y="613" type="line"/>
      <point x="175" y="509"/>
      <point x="283" y="443"/>
      <point x="403" y="443" type="curve" smooth="yes"/>
      <point x="584" y="443"/>
      <point x="698" y="543"/>
      <point x="698" y="702" type="curve" smooth="yes"/>
      <point x="698" y="809"/>
      <point x="635" y="892"/>
      <point x="534" y="917" type="curve"/>
      <point x="626" y="942"/>
      <point x="683" y="1012"/>
      <point x="683" y="1100" type="curve" smooth="yes"/>
      <point x="683" y="1244"/>
      <point x="579" y="1335"/>
      <point x="414" y="1335" type="curve" smooth="yes"/>
    </contour>
  </outline>
</glyph>
<glyph name="acute" format="1">
  <advance width="193"/>
  <unicode hex="00B4"/>
  <outline>
    <contour>
      <point x="8" y="903" type="line"/>
      <point x="39" y="903" type="line"/>
      <point x="193" y="1152" type="line"/>
      <point x="67" y="1152" type="line"/>
    </contour>
    <contour>
      <point x="37" y="805" type="move" name="_top"/>
    </contour>
  </outline>
</glyph>
<glyph name="ordmasculine" format="1">
  <advance width="810"/>
  <unicode hex="00BA"/>
  <outline>
    <contour>
      <point x="240" y="1174"/>
      <point x="90" y="1068"/>
      <point x="90" y="863" type="curve" smooth="yes"/>
      <point x="90" y="655"/>
      <point x="241" y="548"/>
      <point x="404" y="548" type="curve" smooth="yes"/>
      <point x="566" y="548"/>
      <point x="720" y="655"/>
      <point x="720" y="863" type="curve" smooth="yes"/>
      <point x="720" y="1070"/>
      <point x="566" y="1174"/>
      <point x="404" y="1174" type="curve" smooth="yes"/>
    </contour>
    <contour>
      <point x="530" y="1112"/>
      <point x="647" y="1027"/>
      <point x="647" y="863" type="curve" smooth="yes"/>
      <point x="647" y="696"/>
      <point x="530" y="611"/>
      <point x="404" y="611" type="curve" smooth="yes"/>
      <point x="277" y="611"/>
      <point x="163" y="696"/>
      <point x="163" y="863" type="curve" smooth="yes"/>
      <point x="163" y="1027"/>
      <point x="277" y="1112"/>
      <point x="404" y="1112" type="curve" smooth="yes"/>
    </contour>
  </outline>
</glyph>
<glyph name="Thorn" format="1">
  <advance width="1130"/>
  <unicode hex="00DE"/>
  <outline>
    <contour>
      <point x="106" y="1152" type="line"/>
      <point x="106" y="1089" type="line"/>
      <point x="257" y="1089" type="line"/>
      <point x="257" y="62" type="line"/>
      <point x="104" y="62" type="line"/>
      <point x="104" y="0" type="line"/>
      <point x="508" y="0" type="line"/>
      <point x="508" y="62" type="line"/>
      <point x="338" y="62" type="line"/>
      <point x="338" y="302" type="line"/>
      <point x="699" y="302" type="line" smooth="yes"/>
      <point x="919" y="302"/>
      <point x="1037" y="464"/>
      <point x="1037" y="621" type="curve" smooth="yes"/>
      <point x="1037" y="774"/>
      <point x="928" y="923"/>
      <point x="699" y="923" type="curve" smooth="yes"/>
      <point x="338" y="923" type="line"/>
      <point x="338" y="1089" type="line"/>
      <point x="493" y="1089" type="line"/>
      <point x="493" y="1152" type="line"/>
    </contour>
    <contour>
      <point x="875" y="860"/>
      <point x="958" y="743"/>
      <point x="958" y="621" type="curve" smooth="yes"/>
      <point x="958" y="495"/>
      <point x="867" y="367"/>
      <point x="699" y="367" type="curve" smooth="yes"/>
      <point x="338" y="367" type="line"/>
      <point x="338" y="860" type="line"/>
      <point x="699" y="860" type="line" smooth="yes"/>
    </contour>
  </outline>
</glyph>
<glyph name="germandbls" format="1">
  <advance width="1174"/>
  <unicode hex="00DF"/>
  <outline>
    <contour>
      <point x="99" y="0" type="line"/>
      <point x="449" y="0" type="line"/>
      <point x="449" y="62" type="line"/>
      <point x="324" y="62" type="line"/>
      <point x="324" y="856" type="line" smooth="yes"/>
      <point x="324" y="1055"/>
      <point x="424" y="1180"/>
      <point x="591" y="1180" type="curve" smooth="yes"/>
      <point x="755" y="1180"/>
      <point x="858" y="1093"/>
      <point x="858" y="955" type="curve" smooth="yes"/>
      <point x="858" y="797"/>
      <point x="756" y="693"/>
      <point x="594" y="685" type="curve"/>
      <point x="594" y="641" type="line"/>
      <point x="839" y="641"/>
      <point x="993" y="524"/>
      <point x="993" y="337" type="curve" smooth="yes"/>
      <point x="993" y="168"/>
      <point x="836" y="62"/>
      <point x="586" y="62" type="curve"/>
      <point x="586" y="0" type="line"/>
      <point x="885" y="0"/>
      <point x="1072" y="130"/>
      <point x="1072" y="337" type="curve" smooth="yes"/>
      <point x="1072" y="537"/>
      <point x="935" y="668"/>
      <point x="718" y="676" type="curve"/>
      <point x="853" y="703"/>
      <point x="937" y="812"/>
      <point x="937" y="958" type="curve" smooth="yes"/>
      <point x="937" y="1140"/>
      <point x="803" y="1248"/>
      <point x="588" y="1248" type="curve" smooth="yes"/>
      <point x="374" y="1248"/>
      <point x="252" y="1099"/>
      <point x="252" y="851" type="curve" smooth="yes"/>
      <point x="252" y="62" type="line"/>
      <point x="99" y="62" type="line"/>
    </contour>
  </outline>
</glyph>
<glyph name="eth" format="1">
  <advance width="920"/>
  <unicode hex="00F0"/>
  <outline>
    <contour>
      <point x="114" y="1301" type="line"/>
      <point x="328" y="1133"/>
      <point x="560" y="947"/>
      <point x="691" y="690" type="curve"/>
      <point x="619" y="760"/>
      <point x="515" y="796"/>
      <point x="436" y="796" type="curve" smooth="yes"/>
      <point x="230" y="796"/>
      <point x="53" y="632"/>
      <point x="53" y="421" type="curve" smooth="yes"/>
      <point x="53" y="193"/>
      <point x="191" y="-23"/>
      <point x="452" y="-23" type="curve" smooth="yes"/>
      <point x="662" y="-23"/>
      <point x="839" y="129"/>
      <point x="839" y="391" type="curve" smooth="yes"/>
      <point x="839" y="769"/>
      <point x="455" y="1113"/>
      <point x="159" y="1351" type="curve"/>
    </contour>
    <contour>
      <point x="607" y="735"/>
      <point x="768" y="622"/>
      <point x="768" y="394" type="curve" smooth="yes"/>
      <point x="768" y="216"/>
      <point x="666" y="42"/>
      <point x="452" y="42" type="curve" smooth="yes"/>
      <point x="235" y="42"/>
      <point x="129" y="224"/>
      <point x="129" y="404" type="curve" smooth="yes"/>
      <point x="129" y="625"/>
      <point x="288" y="735"/>
      <point x="447" y="735" type="curve" smooth="yes"/>
    </contour>
    <contour>
      <point x="144" y="957" type="line"/>
      <point x="172" y="904" type="line"/>
      <point x="743" y="1152" type="line"/>
      <point x="714" y="1202" type="line"/>
    </contour>
  </outline>
</glyph>
<glyph name="oslash" format="1">
  <advance width="1018"/>
  <unicode hex="00F8"/>
  <outline>
    <contour>
      <point x="219" y="-173" type="line"/>
      <point x="869" y="952" type="line"/>
      <point x="828" y="976" type="line"/>
      <point x="179" y="-149" type="line"/>
    </contour>
    <component base="o"/>
  </outline>
</glyph>
<glyph name="Hbar" format="1">
  <advance width="1445"/>
  <unicode hex="0126"/>
  <outline>
    <contour>
      <point x="141" y="831" type="line"/>
      <point x="1302" y="831" type="line"/>
      <point x="1302" y="882" type="line"/>
      <point x="141" y="882" type="line"/>
    </contour>
    <component base="H"/>
  </outline>
</glyph>
<glyph name="dotlessi" format="1">
  <advance width="536"/>
  <unicode hex="0131"/>
  <outline>
    <component base="lc_xheight_stem"/>
    <contour>
      <point x="314" y="0" type="move" name="ogonek"/>
    </contour>
    <contour>
      <point x="306" y="805" type="move" name="top"/>
    </contour>
  </outline>
</glyph>
<glyph name="kgreenlandic" format="1">
  <advance width="1072"/>
  <unicode hex="0138"/>
  <outline>
    <contour>
      <point x="84" y="0" type="line"/>
      <point x="533" y="0" type="line"/>
      <point x="533" y="60" type="line"/>
      <point x="349" y="60" type="line"/>
      <point x="349" y="399" type="line"/>
      <point x="779" y="60" type="line"/>
      <point x="656" y="60" type="line"/>
      <point x="656" y="0" type="line"/>
      <point x="1034" y="0" type="line"/>
      <point x="1034" y="60" type="line"/>
      <point x="883" y="60" type="line"/>
      <point x="434" y="416" type="line"/>
      <point x="845" y="744" type="line"/>
      <point x="1004" y="744" type="line"/>
      <point x="1004" y="804" type="line"/>
      <point x="619" y="804" type="line"/>
      <point x="619" y="744" type="line"/>
      <point x="743" y="744" type="line"/>
      <point x="349" y="422" type="line"/>
      <point x="349" y="804" type="line"/>
      <point x="84" y="804" type="line"/>
      <point x="84" y="744" type="line"/>
      <point x="270" y="744" type="line"/>
      <point x="270" y="60" type="line"/>
      <point x="84" y="60" type="line"/>
    </contour>
  </outline>
</glyph>
<glyph name="Lslash" format="1">
  <advance width="1169"/>
  <unicode hex="0141"/>
  <outline>
    <contour>
      <point x="120" y="436" type="line"/>
      <point x="542" y="693" type="line"/>
      <point x="542" y="766" type="line"/>
      <point x="120" y="506" type="line"/>
    </contour>
    <component base="L"/>
  </outline>
</glyph>
<glyph name="OE" format="1">
  <advance width="2019"/>
  <unicode hex="0152"/>
  <outline>
    <contour>
      <point x="794" y="1152" type="line" smooth="yes"/>
      <point x="401" y="1152"/>
      <point x="154" y="928"/>
      <point x="154" y="571" type="curve" smooth="yes"/>
      <point x="154" y="220"/>
      <point x="401" y="0"/>
      <point x="794" y="0" type="curve" smooth="yes"/>
      <point x="1849" y="0" type="line"/>
      <point x="1849" y="376" type="line"/>
      <point x="1772" y="376" type="line"/>
      <point x="1772" y="70" type="line"/>
      <point x="1120" y="70" type="line"/>
      <point x="1120" y="534" type="line"/>
      <point x="1553" y="534" type="line"/>
      <point x="1553" y="362" type="line"/>
      <point x="1620" y="362" type="line"/>
      <point x="1620" y="762" type="line"/>
      <point x="1553" y="762" type="line"/>
      <point x="1553" y="604" type="line"/>
      <point x="1120" y="604" type="line"/>
      <point x="1120" y="1082" type="line"/>
      <point x="1750" y="1082" type="line"/>
      <point x="1750" y="796" type="line"/>
      <point x="1827" y="796" type="line"/>
      <point x="1827" y="1152" type="line"/>
    </contour>
    <contour>
      <point x="1038" y="70" type="line"/>
      <point x="794" y="70" type="line" smooth="yes"/>
      <point x="452" y="70"/>
      <point x="238" y="264"/>
      <point x="238" y="572" type="curve" smooth="yes"/>
      <point x="238" y="882"/>
      <point x="452" y="1076"/>
      <point x="794" y="1076" type="curve" smooth="yes"/>
      <point x="1038" y="1076" type="line"/>
    </contour>
  </outline>
</glyph>
<glyph name="perthousand" format="1">
  <advance width="2281"/>
  <unicode hex="2030"/>
  <outline>
    <contour>
      <point x="1727" y="548"/>
      <point x="1580" y="450"/>
      <point x="1580" y="262" type="curve" smooth="yes"/>
      <point x="1580" y="72"/>
      <point x="1728" y="-26"/>
      <point x="1877" y="-26" type="curve" smooth="yes"/>
      <point x="2026" y="-26"/>
      <point x="2176" y="72"/>
      <point x="2176" y="262" type="curve" smooth="yes"/>
      <point x="2176" y="452"/>
      <point x="2026" y="548"/>
      <point x="1877" y="548" type="curve" smooth="yes"/>
    </contour>
    <contour>
      <point x="1991" y="489"/>
      <point x="2107" y="411"/>
      <point x="2107" y="262" type="curve" smooth="yes"/>
      <point x="2107" y="111"/>
      <point x="1991" y="34"/>
      <point x="1877" y="34" type="curve" smooth="yes"/>
      <point x="1762" y="34"/>
      <point x="1649" y="111"/>
      <point x="1649" y="262" type="curve" smooth="yes"/>
      <point x="1649" y="411"/>
      <point x="1762" y="489"/>
      <point x="1877" y="489" type="curve" smooth="yes"/>
    </contour>
    <component base="percent"/>
  </outline>
</glyph>
<glyph name="Euro" format="1">
  <advance width="1377"/>
  <unicode hex="20AC"/>
  <outline>
    <contour>
      <point x="698" y="-23" type="curve" smooth="yes"/>
      <point x="943" y="-23"/>
      <point x="1123" y="69.9999"/>
      <point x="1235" y="263" type="curve"/>
      <point x="1171" y="311" type="line"/>
      <point x="1070" y="121"/>
      <point x="896" y="43"/>
      <point x="714" y="43" type="curve" smooth="yes"/>
      <point x="421" y="43"/>
      <point x="257" y="224"/>
      <point x="209" y="442" type="curve"/>
      <point x="602" y="442" type="line"/>
      <point x="632" y="500" type="line"/>
      <point x="199" y="500" type="line"/>
      <point x="196" y="526"/>
      <point x="194" y="553"/>
      <point x="194" y="580" type="curve" smooth="yes"/>
      <point x="194" y="599"/>
      <point x="195" y="617"/>
      <point x="197" y="636" type="curve"/>
      <point x="602" y="636" type="line"/>
      <point x="632" y="694" type="line"/>
      <point x="206" y="694" type="line"/>
      <point x="251" y="918"/>
      <point x="433" y="1104"/>
      <point x="714" y="1104" type="curve" smooth="yes"/>
      <point x="945" y="1104"/>
      <point x="1101" y="967"/>
      <point x="1169" y="816" type="curve"/>
      <point x="1227" y="828" type="line"/>
      <point x="1227" y="1152" type="line"/>
      <point x="1157" y="1152" type="line"/>
      <point x="1157" y="959" type="line"/>
      <point x="1056" y="1100"/>
      <point x="890" y="1172"/>
      <point x="703" y="1172" type="curve" smooth="yes"/>
      <point x="406" y="1172"/>
      <point x="176" y="973"/>
      <point x="126" y="694" type="curve"/>
      <point x="5" y="694" type="line"/>
      <point x="-25" y="636" type="line"/>
      <point x="118" y="636" type="line"/>
      <point x="117" y="618"/>
      <point x="116" y="599"/>
      <point x="116" y="580" type="curve" smooth="yes"/>
      <point x="116" y="552"/>
      <point x="117" y="526"/>
      <point x="120" y="500" type="curve"/>
      <point x="4.9998" y="500" type="line"/>
      <point x="-25" y="442" type="line"/>
      <point x="129" y="442" type="line"/>
      <point x="189" y="127"/>
      <point x="453" y="-23"/>
    </contour>
    <contour>
      <point x="713" y="0" type="move" name="bot"/>
    </contour>
    <contour>
      <point x="720" y="1152" type="move" name="top"/>
    </contour>
  </outline>
</glyph>
<glyph name="uni2113" format="1">
  <advance width="566"/>
  <unicode hex="2113"/>
  <outline>
    <contour>
      <point x="133" y="1215" type="line"/>
      <point x="130" y="1162" type="line"/>
      <point x="319" y="1162" type="line"/>
      <point x="171" y="259" type="line" smooth="yes"/>
      <point x="137" y="49"/>
      <point x="183" y="-13"/>
      <point x="398" y="-11" type="curve"/>
      <point x="410" y="39" type="line"/>
      <point x="262" y="39"/>
      <point x="205" y="54"/>
      <point x="237" y="258" type="curve" smooth="yes"/>
      <point x="388" y="1215" type="line"/>
    </contour>
  </outline>
</glyph>
<glyph name="uni2126" format="1">
  <advance width="1377"/>
  <unicode hex="2126"/>
  <outline>
    <contour>
      <point x="359" y="1174"/>
      <point x="199" y="940"/>
      <point x="199" y="676" type="curve" smooth="yes"/>
      <point x="199" y="452"/>
      <point x="314" y="198"/>
      <point x="530" y="57" type="curve"/>
      <point x="214" y="57" type="line"/>
      <point x="214" y="0" type="line"/>
      <point x="627" y="0" type="line"/>
      <point x="627" y="48" type="line"/>
      <point x="386" y="198"/>
      <point x="270" y="450"/>
      <point x="270" y="666" type="curve" smooth="yes"/>
      <point x="270" y="909"/>
      <point x="418" y="1117"/>
      <point x="703" y="1117" type="curve" smooth="yes"/>
      <point x="988" y="1117"/>
      <point x="1136" y="909"/>
      <point x="1136" y="666" type="curve" smooth="yes"/>
      <point x="1136" y="450"/>
      <point x="1020" y="198"/>
      <point x="779" y="48" type="curve"/>
      <point x="779" y="0" type="line"/>
      <point x="1192" y="0" type="line"/>
      <point x="1192" y="57" type="line"/>
      <point x="876" y="57" type="line"/>
      <point x="1092" y="198"/>
      <point x="1207" y="452"/>
      <point x="1207" y="676" type="curve" smooth="yes"/>
      <point x="1207" y="940"/>
      <point x="1047" y="1174"/>
      <point x="703" y="1174" type="curve" smooth="yes"/>
    </contour>
  </outline>
</glyph>
<glyph name="partialdiff" format="1">
  <advance width="916"/>
  <unicode hex="2202"/>
  <outline>
    <contour>
      <point x="181" y="1025" type="line"/>
      <point x="277" y="1068"/>
      <point x="362" y="1090"/>
      <point x="436" y="1090" type="curve" smooth="yes"/>
      <point x="630" y="1090"/>
      <point x="742" y="946"/>
      <point x="759" y="637" type="curve"/>
      <point x="353" y="613"/>
      <point x="164" y="390"/>
      <point x="164" y="210" type="curve" smooth="yes"/>
      <point x="164" y="83"/>
      <point x="257" y="-22"/>
      <point x="434" y="-22" type="curve" smooth="yes"/>
      <point x="810" y="-22"/>
      <point x="838" y="345"/>
      <point x="838" y="522" type="curve" smooth="yes"/>
      <point x="838" y="796"/>
      <point x="759" y="1154"/>
      <point x="440" y="1154" type="curve"/>
      <point x="332" y="1148"/>
      <point x="265" y="1131"/>
      <point x="158" y="1082" type="curve"/>
    </contour>
    <contour>
      <point x="301" y="43"/>
      <point x="236" y="117"/>
      <point x="236" y="209" type="curve" smooth="yes"/>
      <point x="236" y="365"/>
      <point x="422" y="574"/>
      <point x="766" y="574" type="curve"/>
      <point x="767" y="553"/>
      <point x="768" y="532"/>
      <point x="768" y="512" type="curve" smooth="yes"/>
      <point x="768" y="271"/>
      <point x="692" y="43"/>
      <point x="438" y="43" type="curve" smooth="yes"/>
    </contour>
  </outline>
</glyph>
<glyph name="minus" format="1">
  <advance width="1008"/>
  <unicode hex="2212"/>
  <outline>
    <contour>
      <point x="142" y="591" type="line"/>
      <point x="866" y="591" type="line"/>
      <point x="866" y="660" type="line"/>
      <point x="142" y="660" type="line"/>
    </contour>
  </outline>
</glyph>
<glyph name="greaterequal" format="1">
  <advance width="752"/>
  <unicode hex="2265"/>
  <outline>
    <contour>
      <point x="37" y="882" type="line"/>
      <point x="619" y="571" type="line"/>
      <point x="37" y="262" type="line"/>
      <point x="37" y="194" type="line"/>
      <point x="725" y="553" type="line"/>
      <point x="725" y="590" type="line"/>
      <point x="37" y="952" type="line"/>
    </contour>
    <contour>
      <point x="37" y="58" type="line"/>
      <point x="37" y="0" type="line"/>
      <point x="725" y="0" type="line"/>
      <point x="725" y="58" type="line"/>
    </contour>
  </outline>
</glyph>
<glyph name="fi" format="1">
  <advance width="1074"/>
  <unicode hex="FB01"/>
  <outline>
    <contour>
      <point x="104" y="0" type="line"/>
      <point x="529" y="0" type="line"/>
      <point x="529" y="60" type="line"/>
      <point x="338" y="60" type="line"/>
      <point x="338" y="750" type="line"/>
      <point x="822" y="750" type="line"/>
      <point x="822" y="60" type="line"/>
      <point x="672" y="60" type="line"/>
      <point x="672" y="0" type="line"/>
      <point x="1054" y="0" type="line"/>
      <point x="1054" y="60" type="line"/>
      <point x="901" y="60" type="line"/>
      <point x="901" y="804" type="line"/>
      <point x="338" y="804" type="line"/>
      <point x="338" y="940" type="line" smooth="yes"/>
      <point x="338" y="1077"/>
      <point x="495" y="1154"/>
      <point x="638" y="1154" type="curve" smooth="yes"/>
      <point x="708" y="1154"/>
      <point x="775" y="1136"/>
      <point x="820" y="1098" type="curve"/>
      <point x="802" y="1088"/>
      <point x="792" y="1068"/>
      <point x="792" y="1049" type="curve" smooth="yes"/>
      <point x="792" y="1022"/>
      <point x="817" y="993"/>
      <point x="859" y="993" type="curve" smooth="yes"/>
      <point x="896" y="993"/>
      <point x="921" y="1024"/>
      <point x="921" y="1058" type="curve" smooth="yes"/>
      <point x="921" y="1167"/>
      <point x="765" y="1216"/>
      <point x="636" y="1216" type="curve" smooth="yes"/>
      <point x="457" y="1216"/>
      <point x="259" y="1113"/>
      <point x="259" y="938" type="curve" smooth="yes"/>
      <point x="259" y="804" type="line"/>
      <point x="104" y="804" type="line"/>
      <point x="104" y="750" type="line"/>
      <point x="259" y="750" type="line"/>
      <point x="259" y="60" type="line"/>
      <point x="104" y="60" type="line"/>
    </contour>
  </outline>
</glyph>
<glyph name="fl" format="1">
  <advance width="1209"/>
  <unicode hex="FB02"/>
  <outline>
    <contour>
      <point x="466" y="1239"/>
      <point x="259" y="1149"/>
      <point x="259" y="948" type="curve" smooth="yes"/>
      <point x="259" y="804" type="line"/>
      <point x="104" y="804" type="line"/>
      <point x="104" y="750" type="line"/>
      <point x="259" y="750" type="line"/>
      <point x="259" y="60" type="line"/>
      <point x="104" y="60" type="line"/>
      <point x="104" y="0" type="line"/>
      <point x="529" y="0" type="line"/>
      <point x="529" y="60" type="line"/>
      <point x="338" y="60" type="line"/>
      <point x="338" y="750" type="line"/>
      <point x="541" y="750" type="line"/>
      <point x="541" y="804" type="line"/>
      <point x="338" y="804" type="line"/>
      <point x="338" y="951" type="line" smooth="yes"/>
      <point x="338" y="1109"/>
      <point x="505" y="1176"/>
      <point x="651" y="1176" type="curve" smooth="yes"/>
      <point x="763" y="1176"/>
      <point x="862" y="1149"/>
      <point x="862" y="1109" type="curve" smooth="yes"/>
      <point x="862" y="60" type="line"/>
      <point x="676" y="60" type="line"/>
      <point x="676" y="0" type="line"/>
      <point x="1125" y="0" type="line"/>
      <point x="1125" y="60" type="line"/>
      <point x="942" y="60" type="line"/>
      <point x="942" y="1109" type="line" smooth="yes"/>
      <point x="942" y="1196"/>
      <point x="804" y="1239"/>
      <point x="652" y="1239" type="curve" smooth="yes"/>
    </contour>
  </outline>
</glyph>
<glyph name="ff" format="1">
  <advance width="1221"/>
  <outline>
    <contour>
      <point x="902" y="1185"/>
      <point x="812" y="1123"/>
      <point x="812" y="1007" type="curve" smooth="yes"/>
      <point x="812" y="805" type="line"/>
      <point x="493" y="805" type="line"/>
      <point x="493" y="750" type="line"/>
      <point x="812" y="750" type="line"/>
      <point x="812" y="58" type="line"/>
      <point x="664" y="58" type="line"/>
      <point x="664" y="0" type="line"/>
      <point x="1072" y="0" type="line"/>
      <point x="1072" y="58" type="line"/>
      <point x="888" y="58" type="line"/>
      <point x="888" y="750" type="line"/>
      <point x="1105" y="750" type="line"/>
      <point x="1105" y="805" type="line"/>
      <point x="888" y="805" type="line"/>
      <point x="888" y="1009" type="line" smooth="yes"/>
      <point x="888" y="1084"/>
      <point x="941" y="1125"/>
      <point x="992" y="1125" type="curve" smooth="yes"/>
      <point x="1040" y="1125"/>
      <point x="1093" y="1109"/>
      <point x="1106" y="1023" type="curve"/>
      <point x="1159" y="1043" type="line"/>
      <point x="1144" y="1151"/>
      <point x="1073" y="1185"/>
      <point x="989" y="1185" type="curve" smooth="yes"/>
    </contour>
    <component base="f"/>
  </outline>
</glyph>
<glyph name="ffi" format="1">
  <advance width="1723"/>
  <outline>
    <contour>
      <point x="190" y="0" type="line"/>
      <point x="598" y="0" type="line"/>
      <point x="598" y="58" type="line"/>
      <point x="414" y="58" type="line"/>
      <point x="414" y="750" type="line"/>
      <point x="831" y="750" type="line"/>
      <point x="831" y="804" type="line"/>
      <point x="414" y="804" type="line"/>
      <point x="414" y="989" type="line" smooth="yes"/>
      <point x="414" y="1132"/>
      <point x="707" y="1222"/>
      <point x="974" y="1051" type="curve"/>
      <point x="1015" y="1089" type="line"/>
      <point x="717" y="1301"/>
      <point x="338" y="1205"/>
      <point x="338" y="987" type="curve" smooth="yes"/>
      <point x="338" y="804" type="line"/>
      <point x="190" y="804" type="line"/>
      <point x="190" y="750" type="line"/>
      <point x="338" y="750" type="line"/>
      <point x="338" y="58" type="line"/>
      <point x="190" y="58" type="line"/>
    </contour>
    <component base="fi" xOffset="661"/>
  </outline>
</glyph>
<glyph name="lc_bowl_right" format="1">
  <advance width="1156"/>
  <outline>
    <contour>
      <point x="597" y="-22" type="curve" smooth="yes"/>
      <point x="810" y="-22"/>
      <point x="1014" y="125"/>
      <point x="1017" y="396" type="curve" smooth="yes"/>
      <point x="1020" y="686"/>
      <point x="824" y="826"/>
      <point x="615" y="826" type="curve" smooth="yes"/>
      <point x="490" y="826"/>
      <point x="375" y="777"/>
      <point x="281" y="690" type="curve"/>
      <point x="281" y="624" type="line"/>
      <point x="398" y="728"/>
      <point x="508" y="763"/>
      <point x="616" y="763" type="curve" smooth="yes"/>
      <point x="801" y="763"/>
      <point x="941" y="626"/>
      <point x="941" y="403" type="curve" smooth="yes"/>
      <point x="941" y="205"/>
      <point x="814" y="41"/>
      <point x="597" y="41" type="curve" smooth="yes"/>
      <point x="485" y="41"/>
      <point x="379" y="82"/>
      <point x="281" y="186" type="curve"/>
      <point x="281" y="113" type="line"/>
      <point x="370" y="22"/>
      <point x="477" y="-22"/>
    </contour>
  </outline>
</glyph>
<glyph name="lc_xheight_curved_stem" format="1">
  <advance width="1124"/>
  <outline>
    <contour>
      <point x="688" y="0" type="line"/>
      <point x="1073" y="0" type="line"/>
      <point x="1073" y="58" type="line"/>
      <point x="924" y="58" type="line"/>
      <point x="924" y="578" type="line" smooth="yes"/>
      <point x="924" y="742"/>
      <point x="823" y="826"/>
      <point x="678" y="826" type="curve" smooth="yes"/>
      <point x="573" y="826"/>
      <point x="446" y="782"/>
      <point x="317" y="693" type="curve"/>
      <point x="317" y="633" type="line"/>
      <point x="464" y="726"/>
      <point x="581" y="764"/>
      <point x="667" y="764" type="curve" smooth="yes"/>
      <point x="788" y="764"/>
      <point x="848" y="688"/>
      <point x="848" y="579" type="curve" smooth="yes"/>
      <point x="848" y="58" type="line"/>
      <point x="688" y="58" type="line"/>
    </contour>
  </outline>
</glyph>
